/* XPM */
static const char *SGVhcnQ_[] = {
/* columns rows colors chars-per-pixel */
"64 64 245 2 ",
"   c black",
".  c #050100",
"X  c #070200",
"o  c #090200",
"O  c #0F0300",
"+  c #100400",
"@  c #110400",
"#  c #120400",
"$  c #160500",
"%  c #170500",
"&  c #180500",
"*  c #180600",
"=  c #190600",
"-  c #1A0600",
";  c #1B0600",
":  c #1D0700",
">  c #1E0700",
",  c #1F0700",
"<  c #200700",
"1  c #210700",
"2  c #220800",
"3  c #230800",
"4  c #240800",
"5  c #250800",
"6  c #260900",
"7  c #270900",
"8  c #280900",
"9  c #290900",
"0  c #2A0900",
"q  c #2A0A00",
"w  c #2B0A00",
"e  c #2C0A00",
"r  c #2D0A00",
"t  c #2E0A00",
"y  c #2F0B00",
"u  c #310B00",
"i  c #320B00",
"p  c #330B00",
"a  c #330C00",
"s  c #340C00",
"d  c #350C00",
"f  c #360C00",
"g  c #370C00",
"h  c #370D00",
"j  c #380D00",
"k  c #390D00",
"l  c #3A0D00",
"z  c #3B0D00",
"x  c #3C0D00",
"c  c #3C0E00",
"v  c #3D0E00",
"b  c #3E0E00",
"n  c #3F0E00",
"m  c #400E00",
"M  c #410F00",
"N  c #420F00",
"B  c #430F00",
"V  c #440F00",
"C  c #450F00",
"Z  c #451000",
"A  c #461000",
"S  c #471000",
"D  c #481000",
"F  c #491000",
"G  c #491100",
"H  c #4A1100",
"J  c #4B1100",
"K  c #4C1100",
"L  c #4E1200",
"P  c #4F1200",
"I  c #501200",
"U  c #511200",
"Y  c #521200",
"T  c #531300",
"R  c #541300",
"E  c #551300",
"W  c #561300",
"Q  c #571400",
"!  c #581400",
"~  c #591400",
"^  c #5A1400",
"/  c #5B1400",
"(  c #5B1500",
")  c #5C1500",
"_  c #5D1500",
"`  c #5E1500",
"'  c #5F1500",
"]  c #5F1600",
"[  c #601600",
"{  c #611600",
"}  c #621600",
"|  c #631600",
" . c #641700",
".. c #651700",
"X. c #661700",
"o. c #671700",
"O. c #681700",
"+. c #681800",
"@. c #691800",
"#. c #6A1800",
"$. c #6B1800",
"%. c #6C1800",
"&. c #6D1900",
"*. c #6E1900",
"=. c #6F1900",
"-. c #701900",
";. c #711900",
":. c #711A00",
">. c #721A00",
",. c #731A00",
"<. c #741A00",
"1. c #751A00",
"2. c #761B00",
"3. c #771B00",
"4. c #781B00",
"5. c #7A1B00",
"6. c #7A1C00",
"7. c #7B1C00",
"8. c #7C1C00",
"9. c #7D1C00",
"0. c #7E1C00",
"q. c #801D00",
"w. c #811D00",
"e. c #821D00",
"r. c #841E00",
"t. c #851E00",
"y. c #861E00",
"u. c #871F00",
"i. c #891F00",
"p. c #8A1F00",
"a. c #8B1F00",
"s. c #8C2000",
"d. c #8D2000",
"f. c #8E2000",
"g. c #8F2000",
"h. c #902000",
"j. c #902100",
"k. c #912100",
"l. c #922100",
"z. c #932100",
"x. c #942100",
"c. c #942200",
"v. c #952200",
"b. c #962200",
"n. c #972200",
"m. c #982200",
"M. c #992200",
"N. c #992300",
"B. c #9A2300",
"V. c #9B2300",
"C. c #9C2300",
"Z. c #9D2300",
"A. c #9E2400",
"S. c #9F2400",
"D. c #A02400",
"F. c #A12400",
"G. c #A22500",
"H. c #A32500",
"J. c #A42500",
"K. c #A52500",
"L. c #A62600",
"P. c #A72600",
"I. c #A82600",
"U. c #A92600",
"Y. c #AA2600",
"T. c #AB2700",
"R. c #AC2700",
"E. c #AD2700",
"W. c #AE2700",
"Q. c #AF2700",
"!. c #AF2800",
"~. c #B02800",
"^. c #B12800",
"/. c #B22800",
"(. c #B32800",
"). c #B42900",
"_. c #B52900",
"`. c #B62900",
"'. c #B72900",
"]. c #B82900",
"[. c #B92A00",
"{. c #BA2A00",
"}. c #BB2A00",
"|. c #BC2A00",
" X c #BD2B00",
".X c #BE2B00",
"XX c #BF2B00",
"oX c #C02B00",
"OX c #C22C00",
"+X c #C52C00",
"@X c #C52D00",
"#X c #C62D00",
"$X c #C72D00",
"%X c #C82D00",
"&X c #C92D00",
"*X c #CA2E00",
"=X c #CB2E00",
"-X c #CC2E00",
";X c #CD2E00",
":X c #CF2F00",
">X c #D02F00",
",X c #D12F00",
"<X c #D22F00",
"1X c #D33000",
"2X c #D43000",
"3X c #D53000",
"4X c #D63000",
"5X c #D83100",
"6X c #D93100",
"7X c #DA3100",
"8X c #DB3100",
"9X c #DB3200",
"0X c #DC3200",
"qX c #DD3200",
"wX c #DE3200",
"eX c #DF3200",
"rX c #E03300",
"tX c #E13300",
"yX c #E23300",
"uX c #E33300",
"iX c #E43300",
"pX c #E43400",
"aX c #E53400",
"sX c #E63400",
"dX c #E73400",
"fX c #E83400",
"gX c #E93500",
"hX c #EA3500",
"jX c #EB3500",
"kX c #EC3500",
"lX c #ED3500",
"zX c #ED3600",
"xX c #EE3600",
"cX c #EF3600",
"vX c #F03600",
"bX c #F13600",
"nX c #F23700",
"mX c #F33700",
"MX c #F43700",
"NX c #F53700",
"BX c #F63700",
"VX c #F63800",
"CX c #F73800",
"ZX c #F83800",
"AX c None",
/* pixels */
"AXAXAXAXAXAXAXAXAXAXAXAXAXAXAXAXAXAXAXAXAXAXAXAXAXAXAXAXAXAXAXAXAXAXAXAXAXAXAXAXAXAXAXAXAXAXAXAXAXAXAXAXAXAXAXAXAXAXAXAXAXAXAXAX",
"AXAXAXAXAXAXAXAXAXAXAXAXAXAXAXAXAXAXAXAXAXAXAXAXAXAXAXAXAXAXAXAXAXAXAXAXAXAXAXAXAXAXAXAXAXAXAXAXAXAXAXAXAXAXAXAXAXAXAXAXAXAXAXAX",
"AXAXAXAXAXAXAXAXAXAXAXAXAXAXAXAXAXAXAXAXAXAXAXAXAXAXAXAXAXAXAXAXAXAXAXAXAXAXAXAXAXAXAXAXAXAXAXAXAXAXAXAXAXAXAXAXAXAXAXAXAXAXAXAX",
"AXAXAXAXAXAXAXAXAXAXAXAXAXAXAXAXAXAXAXAXAXAXAXAXAXAXAXAXAXAXAXAXAXAXAXAXAXAXAXAXAXAXAXAXAXAXAXAXAXAXAXAXAXAXAXAXAXAXAXAXAXAXAXAX",
"AXAXAXAXAXAXAXAXAXAXAXAXAXAXAXAXAXAXAXAXAXAXAXAXAXAXAXAXAXAXAXAXAXAXAXAXAXAXAXAXAXAXAXAXAXAXAXAXAXAXAXAXAXAXAXAXAXAXAXAXAXAXAXAX",
"AXAXAXAXAXAXAXAXAXAXAXAXAXAXAXAXAXAXAXAXAXAXAXAXAXAXAXAXAXAXAXAXAXAXAXAXAXAXAXAXAXAXAXAXAXAXAXAXAXAXAXAXAXAXAXAXAXAXAXAXAXAXAXAX",
"AXAXAXAXAXAXAXAXAXAXAXAXAXAXAXAXAXAXAXAXAXAXAXAXAXAXAXAXAXAXAXAXAXAXAXAXAXAXAXAXAXAXAXAXAXAXAXAXAXAXAXAXAXAXAXAXAXAXAXAXAXAXAXAX",
"AXAXAXAXAXAXAXAXAXAXAXAXAXAXAXAX                          AXAXAXAXAXAXAX                          AXAXAXAXAXAXAXAXAXAXAXAXAXAXAX",
"AXAXAXAXAXAXAXAXAXAXAXAXAXAXAXAX                          AXAXAXAXAXAXAX                          AXAXAXAXAXAXAXAXAXAXAXAXAXAXAX",
"AXAXAXAXAXAXAXAXAXAXAXAXAXAXAXAX                          AXAXAXAXAXAXAX                          AXAXAXAXAXAXAXAXAXAXAXAXAXAXAX",
"AXAXAXAXAXAXAXAXAXAXAXAXAXAXAXAXo o o o o o o o o o o o o AXAXAXAXAXAXAXo o o o o o o o o o o o o AXAXAXAXAXAXAXAXAXAXAXAXAXAXAX",
"AXAXAXAXAXAXAXAXAXAXAXAXAXAXAX5 w y y y y y y y y y y y w 5 AXAXAXAXAX5 w y y y y y y y y y y w w AXAXAXAXAXAXAXAXAXAXAXAXAXAXAX",
"AXAXAXAXAXAXAXAXAXAXAXAXAXAXw k B D Y R R R R R R R Y K Z k y AXAXAXp v Z K Y R R R R R R R Y D B g AXAXAXAXAXAXAXAXAXAXAXAXAXAX",
"AXAXAXAXAXAXAXAXAXAXAXAXAX& a D ! o.,.7.7.7.7.7.7.7.1.@._ D g : X 5 v Y _ =.1.7.7.7.7.7.7.7.,.o.R V y @ AXAXAXAXAXAXAXAXAXAXAXAX",
"AXAXAXAXAXAXAXAXAXAXAX    & k R =.q.z.F.F.F.F.F.F.F.b.r.=.! v : X 5 V _ 1.i.m.F.F.F.F.F.F.F.g.8.o.K p @   AXAXAXAXAXAXAXAXAXAXAX",
"AXAXAXAXAXAXAXAXAXAX      & v _ 7.m./.$X$X$X$X$X$X$X'.C.q.| B < X w D @.r.F. X$X$X$X$X$X$X$XE.z.1.R g @     AXAXAXAXAXAXAXAXAXAX",
"AXAXAXAXAXAXAXAXAXAX      & B o.i.E.>XlXlXlXlXlXlXlX4X/.g.@.Z < X w K 1.m. X0XlXlXlXlXlXlXjX*XP.q._ g @       AXAXAXAXAXAXAXAXAX",
"AXAXAXAXAXAXAXAXAX& & & & p R 1.m.{.0XZXZXZXZXZXZXZXtXoXA.8.! k : B | r.P.*XjXZXZXZXZXZXZXVX4X/.z.=.K w & & & & AXAXAXAXAXAXAXAX",
"AXAXAXAXAXAXAXAXw a k v B R ,.g.U.$XtXZXZXZXZXZXZXZXsX*XE.z.1.! V | 8.m.'.>XlXZXZXZXZXZXZXVX7X XF.r.@.K v v k p AXAXAXAXAXAXAXAX",
"AXAXAXAXAXAXAX5 k D R _ o.1.g.F.{.:XsXZXZXZXZXZXZXZXjX1X XP.z.7.@.q.b.E.OX7XlXZXZXZXZXZXZXVXtX*X'.A.r.,.| ! Y Z g : AXAXAXAXAXAX",
"AXAXAX      o w B ! =.7.i.m.U.{.*X7XjXZXZXZXZXZXZXZXlX0X:X XE.m.g.A./.oX>XtXvXZXZXZXZXZXZXVXsX4X$X'.P.b.r.5.O.R v 2         AXAX",
"AXAXAX      o y D o.q.m.E.{.$X:X7XsXlXZXZXZXZXZXZXZXvXsX0X>X$X X'. X*X4X0XjXMXZXZXZXZXZXZXVXlXtX7X:XOX{.U.z.7.| V 5         AXAX",
"AXAXAX      o y Y ,.z./.>X0XtXsXjXlXMXZXZXZXZXZXZXZXMXvXjXsXtX0X7X0XtXjXlXvXVXZXZXZXZXZXZXZXvXlXjXsXtX7X*XU.i.@.D 5         AXAX",
"AXAXAX      o y R 7.F.$XlXZXZXZXZXZXZXZXZXZXZXZXZXZXZXZXZXZXZXZXZXZXZXZXZXZXZXZXZXZXZXZXZXZXZXZXVXZXZXZXiX Xm.,.K 5         AXAX",
"AXAXAX      o y R 7.F.$XlXZXZXZXZXZXZXZXZXZXZXZXZXZXZXZXZXZXZXZXZXZXZXZXZXZXZXZXZXZXZXZXZXZXZXZXZXZXZXZXiX Xm.,.K 5         AXAX",
"AXAXAX      o y R 7.F.$XlXZXZXZXZXZXZXZXZXZXZXZXZXZXZXZXZXZXZXZXZXZXZXZXZXZXZXZXZXZXZXZXZXZXZXZXZXZXZXZXiX Xm.,.K 5         AXAX",
"AXAXAX      o y R 7.F.$XlXZXZXZXZXZXZXZXZXZXZXZXZXZXZXZXZXZXZXZXZXZXZXZXZXZXZXZXZXZXZXZXZXZXZXZXZXZXZXZXiX Xm.,.K 5         AXAX",
"AXAXAX      o y R 7.F.$XlXZXZXZXZXZXZXZXZXZXZXZXZXZXZXZXZXZXZXZXZXZXZXZXZXZXZXZXZXZXZXZXZXZXZXZXZXZXZXZXiX Xm.,.K 5         AXAX",
"AXAXAX      o y R 7.F.$XlXZXZXZXZXZXZXZXZXZXZXZXZXZXZXZXZXZXZXZXZXZXZXZXZXZXZXZXZXZXZXZXZXZXZXZXZXZXZXZXiX Xm.,.K 5         AXAX",
"AXAXAX      o y R 7.F.$XlXZXZXZXZXZXZXZXZXZXZXZXZXZXZXZXZXZXZXZXZXZXZXZXZXZXZXZXZXZXZXZXZXZXZXZXZXZXZXZXiX Xm.,.K 5         AXAX",
"AXAXAX      o y Y 1.b.'.4XtXsXjXlXvXMXZXZXZXZXZXZXZXZXZXZXZXZXZXZXZXZXZXZXZXZXZXZXZXZXZXZXZXMXvXlXjXsXtX:XE.g.=.D 5         AXAX",
"AXAXAX      o y K @.r.C./.oX*X1X0XsXvXZXZXZXZXZXZXZXZXZXZXZXZXZXZXZXZXZXZXZXZXZXZXZXZXZXZXVXlXsX7X>X$X XE.b.8.| Z 5         AXAX",
"AXAXAX      o w Z _ =.q.g.A.E. X:X0XjXZXZXZXZXZXZXZXZXZXZXZXZXZXZXZXZXZXZXZXZXZXZXZXZXZXZXVXjX7X*X{.U.m.g.8.@.Q v 2         AXAX",
"AXAXAXAXAXAXAX5 k D ! | @.8.z.P. X>XsXZXZXZXZXZXZXZXZXZXZXZXZXZXZXZXZXZXZXZXZXZXZXZXZXZXZXVXtX:X'.F.g.1.@.| R D g < AXAXAXAXAXAX",
"AXAXAXAXAXAXAXAXy g v B Z ! 1.z.E.$XtXZXZXZXZXZXZXZXZXZXZXZXZXZXZXZXZXZXZXZXZXZXZXZXZXZXZXVX7XoXP.i.=.R Z B v g w AXAXAXAXAXAXAX",
"AXAXAXAXAXAXAXAXAX: : < < k ! 7.m. X0XZXZXZXZXZXZXZXZXZXZXZXZXZXZXZXZXZXZXZXZXZXZXZXZXZXZXVX4X'.z.,.Y p < < : : AXAXAXAXAXAXAXAX",
"AXAXAXAXAXAXAXAXAXAX      & B o.i./.4XMXMXMXMXVXVXZXZXZXZXZXZXZXZXZXZXZXZXZXZXZXVXVXMXMXMXvX*XP.q._ g @       AXAXAXAXAXAXAXAXAX",
"AXAXAXAXAXAXAXAXAXAX      & v _ 8.C.{.:X4X0XtXjXlXMXZXZXZXZXZXZXZXZXZXZXZXZXZXMXlXsXtX7X4X:X/.b.1.Q g @       AXAXAXAXAXAXAXAXAX",
"AXAXAXAXAXAXAXAXAXAXAX    & k R =.r.m.U.'.OX:X7XsXMXZXZXZXZXZXZXZXZXZXZXZXZXZXvXsX7X:X X/.P.b.q.@.K p @     AXAXAXAXAXAXAXAXAXAX",
"AXAXAXAXAXAXAXAXAXAXAXAXAX& g D _ =.5.r.b.U.{.:X0XvXZXZXZXZXZXZXZXZXZXZXZXZXZXlX7X*X'.P.z.q.1.@.! Z y @ AXAXAXAXAXAXAXAXAXAXAXAX",
"AXAXAXAXAXAXAXAXAXAXAXAXAXAXy v Z Y Q | 5.z.U. X7XvXZXZXZXZXZXZXZXZXZXZXZXZXZXjX>X{.F.i.,.! R K Z k w AXAXAXAXAXAXAXAXAXAXAXAXAX",
"AXAXAXAXAXAXAXAXAXAXAXAXAXAXAXw y p g k ! 1.b./.>XlXZXZXZXZXZXZXZXZXZXZXZXZXZXsX*XU.g.=.Y g a p y 5 AXAXAXAXAXAXAXAXAXAXAXAXAXAX",
"AXAXAXAXAXAXAXAXAXAXAXAXAXAXAXAXO O O % k _ q.P.*XlXZXZXZXZXZXZXZXZXZXZXZXZXZXtX XC.5.R p O O O O AXAXAXAXAXAXAXAXAXAXAXAXAXAXAX",
"AXAXAXAXAXAXAXAXAXAXAXAXAXAXAXAX      X y Y ,.b.'.4XiXsXjXlXvXMXZXMXvXlXjXsXtX:XE.g.@.Z 2       AXAXAXAXAXAXAXAXAXAXAXAXAXAXAXAX",
"AXAXAXAXAXAXAXAXAXAXAXAXAXAXAXAXAX    X w D @.r.C.'.OX*X4X0XsXvXVXlXsX7X>X*X XE.b.8.| B 2       AXAXAXAXAXAXAXAXAXAXAXAXAXAXAXAX",
"AXAXAXAXAXAXAXAXAXAXAXAXAXAXAXAXAXAX  X w V ! ,.q.z.A.E. X:X0XjXVXsX7X*X{.U.C.g.8.@.R v <     AXAXAXAXAXAXAXAXAXAXAXAXAXAXAXAXAX",
"AXAXAXAXAXAXAXAXAXAXAXAXAXAXAXAXAXAXAXAX5 k K ! o.=.8.z.P. X>XsXMXtX:X'.F.g.5.@.| R D g : AXAXAXAXAXAXAXAXAXAXAXAXAXAXAXAXAXAXAX",
"AXAXAXAXAXAXAXAXAXAXAXAXAXAXAXAXAXAXAXAXAXy k v V D ! 1.z.U.$XtXMX7X XP.i.=.R Z B v g w AXAXAXAXAXAXAXAXAXAXAXAXAXAXAXAXAXAXAXAX",
"AXAXAXAXAXAXAXAXAXAXAXAXAXAXAXAXAXAXAXAXAXAX: < 2 2 k ! 5.m.{.7XMX4X/.z.,.Y p 2 2 < : AXAXAXAXAXAXAXAXAXAXAXAXAXAXAXAXAXAXAXAXAX",
"AXAXAXAXAXAXAXAXAXAXAXAXAXAXAXAXAXAXAXAXAXAXAX      & v o.i.!.4XvX:XP.q.! g O       AXAXAXAXAXAXAXAXAXAXAXAXAXAXAXAXAXAXAXAXAXAX",
"AXAXAXAXAXAXAXAXAXAXAXAXAXAXAXAXAXAXAXAXAXAXAX      & v _ 8.m.{.:X/.b.1.R a O       AXAXAXAXAXAXAXAXAXAXAXAXAXAXAXAXAXAXAXAXAXAX",
"AXAXAXAXAXAXAXAXAXAXAXAXAXAXAXAXAXAXAXAXAXAXAXAX    & k R =.r.m.P.b.q.@.K p O     AXAXAXAXAXAXAXAXAXAXAXAXAXAXAXAXAXAXAXAXAXAXAX",
"AXAXAXAXAXAXAXAXAXAXAXAXAXAXAXAXAXAXAXAXAXAXAXAXAX  % a D _ =.5.q.1.@.! Z y O AXAXAXAXAXAXAXAXAXAXAXAXAXAXAXAXAXAXAXAXAXAXAXAXAX",
"AXAXAXAXAXAXAXAXAXAXAXAXAXAXAXAXAXAXAXAXAXAXAXAXAXAXAXy v D Y ! _ Q K Z k 5 AXAXAXAXAXAXAXAXAXAXAXAXAXAXAXAXAXAXAXAXAXAXAXAXAXAX",
"AXAXAXAXAXAXAXAXAXAXAXAXAXAXAXAXAXAXAXAXAXAXAXAXAXAXAXAXw y a g g g p y w AXAXAXAXAXAXAXAXAXAXAXAXAXAXAXAXAXAXAXAXAXAXAXAXAXAXAX",
"AXAXAXAXAXAXAXAXAXAXAXAXAXAXAXAXAXAXAXAXAXAXAXAXAXAXAXAXAX@ @ @ @ @ @ @ AXAXAXAXAXAXAXAXAXAXAXAXAXAXAXAXAXAXAXAXAXAXAXAXAXAXAXAX",
"AXAXAXAXAXAXAXAXAXAXAXAXAXAXAXAXAXAXAXAXAXAXAXAXAXAXAXAXAX              AXAXAXAXAXAXAXAXAXAXAXAXAXAXAXAXAXAXAXAXAXAXAXAXAXAXAXAX",
"AXAXAXAXAXAXAXAXAXAXAXAXAXAXAXAXAXAXAXAXAXAXAXAXAXAXAXAXAX              AXAXAXAXAXAXAXAXAXAXAXAXAXAXAXAXAXAXAXAXAXAXAXAXAXAXAXAX",
"AXAXAXAXAXAXAXAXAXAXAXAXAXAXAXAXAXAXAXAXAXAXAXAXAXAXAXAXAX              AXAXAXAXAXAXAXAXAXAXAXAXAXAXAXAXAXAXAXAXAXAXAXAXAXAXAXAX",
"AXAXAXAXAXAXAXAXAXAXAXAXAXAXAXAXAXAXAXAXAXAXAXAXAXAXAXAXAX              AXAXAXAXAXAXAXAXAXAXAXAXAXAXAXAXAXAXAXAXAXAXAXAXAXAXAXAX",
"AXAXAXAXAXAXAXAXAXAXAXAXAXAXAXAXAXAXAXAXAXAXAXAXAXAXAXAXAXAXAXAXAXAXAXAXAXAXAXAXAXAXAXAXAXAXAXAXAXAXAXAXAXAXAXAXAXAXAXAXAXAXAXAX",
"AXAXAXAXAXAXAXAXAXAXAXAXAXAXAXAXAXAXAXAXAXAXAXAXAXAXAXAXAXAXAXAXAXAXAXAXAXAXAXAXAXAXAXAXAXAXAXAXAXAXAXAXAXAXAXAXAXAXAXAXAXAXAXAX",
"AXAXAXAXAXAXAXAXAXAXAXAXAXAXAXAXAXAXAXAXAXAXAXAXAXAXAXAXAXAXAXAXAXAXAXAXAXAXAXAXAXAXAXAXAXAXAXAXAXAXAXAXAXAXAXAXAXAXAXAXAXAXAXAX",
"AXAXAXAXAXAXAXAXAXAXAXAXAXAXAXAXAXAXAXAXAXAXAXAXAXAXAXAXAXAXAXAXAXAXAXAXAXAXAXAXAXAXAXAXAXAXAXAXAXAXAXAXAXAXAXAXAXAXAXAXAXAXAXAX"
};
