/* XPM */
static const char *ZXhpdCslMjgxJTI5[] = {
/* columns rows colors chars-per-pixel */
"64 64 112 2 ",
"   c black",
".  c #0D0602",
"X  c #100804",
"o  c #120B04",
"O  c #150D06",
"+  c #271207",
"@  c #201008",
"#  c #251608",
"$  c #2A1408",
"%  c #2D160A",
"&  c #2B1B0C",
"*  c #31190B",
"=  c #331B0C",
"-  c #351E0C",
";  c #37210C",
":  c #3A230E",
">  c #3D2610",
",  c #3E2B17",
"<  c #41210F",
"1  c #44200D",
"2  c #47220E",
"3  c #4E240D",
"4  c #402812",
"5  c #4A2C10",
"6  c #5E2C11",
"7  c #5B2D14",
"8  c #563618",
"9  c #612E13",
"0  c #613117",
"q  c #663717",
"w  c #683316",
"e  c #6A3C18",
"r  c #753614",
"t  c #783816",
"y  c #7B3A17",
"u  c #7B3D1B",
"i  c #7F3D19",
"p  c #433322",
"a  c #453622",
"s  c #6F4118",
"d  c #75461C",
"f  c #4C402D",
"g  c #7B4C20",
"h  c #6C5035",
"j  c #715635",
"k  c #765D44",
"l  c #7C6248",
"z  c #823F1A",
"x  c #85411C",
"c  c #88431D",
"v  c #8C461F",
"b  c #8F4820",
"n  c #924A22",
"m  c #944D22",
"M  c #964F22",
"N  c #815125",
"B  c #995223",
"V  c #9B5523",
"C  c #9D5723",
"Z  c #9F5A23",
"A  c #A25D24",
"S  c #A45F24",
"D  c #9C6839",
"F  c #A66224",
"G  c #A96526",
"H  c #A86228",
"J  c #AC6728",
"K  c #AF6A2A",
"L  c #B26C2C",
"P  c #A0683E",
"I  c #B87131",
"U  c #92684B",
"Y  c #9B734C",
"T  c #887352",
"R  c #AD7144",
"E  c #B17744",
"W  c #BA8145",
"Q  c #B7804D",
"!  c #A4865D",
"~  c #A8885E",
"^  c #AA8B5F",
"/  c #BB8354",
"(  c #BE9261",
")  c #C0864A",
"_  c #C68C4E",
"`  c #C08954",
"'  c #C68E58",
"]  c #CC9152",
"[  c #CC935C",
"{  c #C8965C",
"}  c #C29463",
"|  c #C89966",
" . c #CA9B66",
".. c #D29861",
"X. c #CFA167",
"o. c #CBA16E",
"O. c #D4A064",
"+. c #D2A369",
"@. c #D5AB72",
"#. c #DBB076",
"$. c #D7B17B",
"%. c #C7A480",
"&. c #D5AA84",
"*. c #D9AF84",
"=. c #DFB488",
"-. c #E2B78A",
";. c #E2BC94",
":. c #E3C088",
">. c #E8C198",
",. c #EDCCA6",
"<. c #F3D6B4",
"1. c None",
/* pixels */
"1.1.1.1.1.1.1.1.1.1.1.1.1.&.=.,.1.1.1.1.1.1.;.=.-.-.-.-.<.1.1.1.1.1.<.;.-.-.-.-.>.<.1.1.1.1.1.<.*.*.&.1.1.1.1.1.1.1.1.1.1.1.1.1.",
"1.1.1.1.1.1.1.1.1.1.1.1.1.B I -.1.1.1.1.1.1.` L I I I I <.1.1.1.1.1.<.` I I I I [ <.1.1.1.1.1.<.F F B 1.1.1.1.1.1.1.1.1.1.1.1.1.",
"1.1.1.1.1.1.1.1.1.1.1.1.1.B I -.1.1.1.1.1.1.` F F F F F <.1.1.1.1.1.<.` F F F F ` <.1.1.1.1.1.<.F F B 1.1.1.1.1.1.1.1.1.1.1.1.1.",
"1.1.1.1.1.1.1.1.1.1.1.1.1.B I -.1.1.1.1.1.1.` F F F F F <.1.1.1.1.1.<.` F F F F ` <.1.1.1.1.1.<.F F B 1.1.1.1.1.1.1.1.1.1.1.1.1.",
"1.1.1.1.1.1.1.1.1.1.1.1.1.B L =.1.1.1.1.1.1./ Z Z Z Z S <.1.1.1.1.1.<./ Z Z Z Z ` <.1.1.1.1.1.<.S Z M 1.1.1.1.1.1.1.1.1.1.1.1.1.",
"1.1.1.1.1.1.1.1.1.1.1.1.1.q s %.1.1.1.1.1.<.U 0 0 0 0 e <.1.1.1.1.1.<.U 0 0 0 0 Y <.1.1.1.1.1.<.e 0 0 1.1.1.1.1.1.1.1.1.1.1.1.1.",
"1.1.1.1.1.1.1.1.1.1.1.1.1.d N Q ....l Y ....D N 8 # g N ......l ' ....D N 8 5 g D ......k ' ....N N & 1.1.1.1.1.1.1.1.1.1.1.1.1.",
"1.1.1.1.1.1.1.1.1.1.1.1.1.G K K K K : s K K K K d ; J K K K K : G K K K K d s J K K K K ; G K K K K : 1.1.1.1.1.1.1.1.1.1.1.1.1.",
"1.1.1.1.1.1.1.1.1.1.1.1.1.0 0 0 0 q # < 0 0 0 0 5 @ 0 0 0 0 e # 0 0 0 0 q 5 < 0 0 0 0 e @ 0 0 0 0 q # 1.1.1.1.1.1.1.1.1.1.1.1.1.",
"1.1.1.1.1.1.1.1.1.1.1.1.1.4 4 O : 4 4 4 4 & # > 4 4 4 4 o : 4 4 4 4 O # 4 4 4 4 & o > 4 4 4 4 O 4 > = 1.1.1.1.1.1.1.1.1.1.1.1.1.",
"1.1.1.1.1.1.1.1.1.1.1.1.1.K K : G K K K K d s J K K K K ; G K K K K : s K K K K d ; J K K K K : K J B 1.1.1.1.1.1.1.1.1.1.1.1.1.",
"1.1.1.1.1.1.1.1.1.1.1.1.1.B A ; B B B B C s q B B B B A = B B B B C ; q B B B B s = B B B B A ; B B M 1.1.1.1.1.1.1.1.1.1.1.1.1.",
"1.1.1.1.1.1.1.1.1.1.1.1.1.: 4 4 4 4 O             o > 4 4 4 4 O : 4 4 4 4 &             O 4 4 4 > - o 1.1.1.1.1.1.1.1.1.1.1.1.1.",
"1.1.1.1.1.1.1.1.1.1.1.1.1.J I I I I >             ; L I I I I > J I I I I g             > I I I L Z * 1.1.1.1.1.1.1.1.1.1.1.1.1.",
"1.1.1.1.1.1.1.1.1.1.1.1.1.B B B B C ;             = B B B B A ; B B B B C s             = B B B B M * 1.1.1.1.1.1.1.1.1.1.1.1.1.",
"1.1.1.1.1.1.1.1.1.1.1.1.1.* * * * = o             o * * * * - o * * * * = #             o * * * * * o 1.1.1.1.1.1.1.1.1.1.1.1.1.",
"1.1.1.1.1.1.1.1.1.1.1.1.1.I I > J I >             > I I ; J I I I I > s I g             > I I > I L B 1.1.1.1.1.1.1.1.1.1.1.1.1.",
"1.1.1.1.1.1.1.1.1.1.1.1.1.Z S ; Z Z -             - Z S - Z Z Z Z A ; e Z e             - Z S ; Z Z M 1.1.1.1.1.1.1.1.1.1.1.1.1.",
"1.1.1.1.1.1.1.1.1.1.1.1.1.* - o * * o             o * - o * * * * = o @ * @             o * - o * * * 1.1.1.1.1.1.1.1.1.1.1.1.1.",
"1.1.1.1.1.1.1.1.1.1.1.1.1.d N N N N &             # g N N N N & d N N N N 8             & N N N s e @ 1.1.1.1.1.1.1.1.1.1.1.1.1.",
"1.1.1.1.1.1.1.1.1.1.1.1.1.Z Z Z Z A ;             - Z Z Z Z S ; Z Z Z Z A s             - Z Z Z Z V * 1.1.1.1.1.1.1.1.1.1.1.1.1.",
"1.1.1.1.1.1.1.1.1.1.1.1.1.0 0 0 0 q #             @ 0 0 0 0 e # 0 0 0 0 q 5             @ 0 0 0 0 0 @ 1.1.1.1.1.1.1.1.1.1.1.1.1.",
"1.1.1.1.1.1.1.1.1.1.1.1.1.N N & d N &             & N N # d N N N N & 5 N 8             & N N & N g q 1.1.1.1.1.1.1.1.1.1.1.1.1.",
"1.1.1.1.1.1.1.1.1.1.1.1.1.K K : G K :             : K K ; G K K K K : s K d             : K K : K J B 1.1.1.1.1.1.1.1.1.1.1.1.1.",
"1.1.1.1.1.1.1.1.1.1.1.1.1.0 e # 0 0 @             @ 0 e @ 0 0 0 0 q # < 0 <             @ 0 e # 0 0 0 1.1.1.1.1.1.1.1.1.1.1.1.1.",
"1.1.1.1.1.1.1.1.1.1.1.1.T f f f * * o # ; , f f f f f f p * * o ; ; a f f f f f f p * * o ; ; a f f f T 1.1.1.1.1.1.1.1.1.1.1.1.",
"E W @.1.1.1.1.1.1.@._ ] ] ] ] #.x n * s A E { _ ] ] ] ] } x n * F A  .{ ] ] ] ] O.} v n ; F C  .) ] ] ] ] O.1.1.1.1.1.1.@.W W E ",
"B F X.1.1.1.1.1.1.X.J K K K K +.t x * s M R W J K K K K ( t v * A M  .W K K K K ) ( t v ; A M  .G K K K K ) 1.1.1.1.1.1.X.F F B ",
"B F X.1.1.1.1.1.1.X.F F F F F X.+ + + % * h W F F F F F ! + + + * * ^ W F F F F W ! + + $ * * ^ F F F F F W 1.1.1.1.1.1.X.F F B ",
"B F X.1.1.1.1.1.1.X.F F F F F X.r r r z v R W F F F F F ( r r r c v  .W F F F F W ( r r t c b  .F F F F F W 1.1.1.1.1.1.X.F F B ",
"B F X.1.1.1.1.1.1. .B B B B A X.r r r r t P E B B B B A ( r r r r t } E B B B B W ( r r r r t } B B B B C W 1.1.1.1.1.1.X.A B M ",
"= ; ^ :.:.:.:.:.:.^ * * * * - ^ ( ( ( ( ( o.h * * * * - $.( ( ( ( ( $.h * * * * j $.( ( ( ( ( $.* * * * = j :.:.:.:.:.:.^ - * * ",
"B F L I I g s L I I I I ; J I I I I > s I I I I g ; L I I I I > J I I I I g s L I I I I ; J I I I I > s I I I I g ; L I I L F B ",
"M Z Z Z A s e Z Z Z Z S - Z Z Z Z A ; e Z Z Z Z s - Z Z Z Z S ; Z Z Z Z A s e Z Z Z Z S - Z Z Z Z A ; e Z Z Z Z s - Z Z Z Z Z M ",
"* * * * = # @ * * * * - o * * * * = o @ * * * * # o * * * * - o * * * * = # @ * * * * - o * * * * = o @ * * * * # o * * * * * * ",
"q s # 5 N N N N 8 # g N N N N & d N N N N 8 5 g N N N N # d N N N N & 5 N N N N 8 # g N N N N & d N N N N 8 5 g N N N N # s s q ",
"M A ; e Z Z Z Z s - Z Z Z Z S ; Z Z Z Z A s e Z Z Z Z S - Z Z Z Z A ; e Z Z Z Z s - Z Z Z Z S ; Z Z Z Z A s e Z Z Z Z S - Z Z M ",
"0 q # < 0 0 0 0 5 @ 0 0 0 0 e # 0 0 0 0 q 5 < 0 0 0 0 e @ 0 0 0 0 q # < 0 0 0 0 5 @ 0 0 0 0 e # 0 0 0 0 q 5 < 0 0 0 0 e @ 0 0 0 ",
"q s g N N 8 5 g N N N N # d N N N N & 5 N N N N 8 # s q 0 7 3 3 3 3 7 0 q 5 5 g N N N N # d N N N N & 5 N N N N 8 # g N g s s q ",
"B F J K K d s J K K K K ; G K K K K : s K K K K d ; C M i 9 + + + + 9 i M q s J K K K K ; G K K K K : s K K K K d ; J K J F F B ",
"0 0 0 0 q 5 < 0 0 0 0 e @ 0 0 0 0 q # < 0 0 0 0 5 @ u 9                 9 7 < 0 0 0 0 e @ 0 0 0 0 q # < 0 0 0 0 5 @ 0 0 0 0 0 0 ",
"= ; o # 4 4 4 4 & o > 4 4 4 4 O : 4 4 4 4 & & 4 ; - 6 +                 + 6 - > & o > 4 4 4 4 O : 4 4 4 4 & # > 4 4 4 4 o ; ; = ",
"B F ; s K K K K d ; J K K K K : G K K K K d d K A M i +                 + i M H d ; J K K K K : G K K K K d s J K K K K ; F F B ",
"M C ; q B B B B s = B B B B A ; B B B B C s q B M v 2 .                 . 2 v M s = B B B B A ; B B B B C s q B B B B A = B B M ",
"= : 4 4 4 & # > 4 4 4 4 o : 4 4 4 4 O # 4 4 4 : - 2 +                     + 2 - 4 4 4 4 o : 4 4 4 4 O # 4 4 4 4 & o > 4 > ; ; = ",
"B J I I I g s L I I I I ; J I I I I > s I I I J Z c +                     + c Z I I I I ; J I I I I > s I I I I g ; L I L F F B ",
"M B B B C s q B B B B A = B B B B C ; q B B B B M c +                     + c M B B B A = B B B B C ; q B B B B s = B B B B B M ",
"* * * * = # @ * * * * - o * * * * = o @ * * * * * 2 +                     + 2 * * * * - o * * * * = o @ * * * * # o * * * * * * ",
"B F ; s I I I I g ; L I I I I > J I I I I g g J Z c +                     + c Z g ; L I I I I > J I I I I g s L I I I I ; F F B ",
"M A ; e Z Z Z Z s - Z Z Z Z S ; Z Z Z Z A s e Z V c +                     + c V s - Z Z Z Z S ; Z Z Z Z A s e Z Z Z Z S - Z Z M ",
"* = o @ * * * * # o * * * * - o * * * * = # @ * * 2 +                     + 2 * # o * * * * - o * * * * = # @ * * * * - o * * * ",
"q d N N N 8 5 g N N N N # d N N N N & 5 N N N d e w +                     + w e N N N N # d N N N N & 5 N N N N 8 # g N N N d q ",
"M Z Z Z A s e Z Z Z Z S - Z Z Z Z A ; e Z Z Z Z V c +                     + c V Z Z Z S - Z Z Z Z A ; e Z Z Z Z s - Z Z Z Z Z M ",
"0 0 0 0 q 5 < 0 0 0 0 e @ 0 0 0 0 q # < 0 0 0 0 0 w +                     + w 0 0 0 0 e @ 0 0 0 0 q # < 0 0 0 0 5 @ 0 0 0 0 0 0 ",
"q s # 5 N N N N 8 # g N N N N & d N N N N 8 8 d e w +                     + w e 8 # g N N N N & d N N N N 8 5 g N N N N # s s q ",
"B F ; s K K K K d ; J K K K K : G K K K K d d G Z c +                     + c Z d ; J K K K K : G K K K K d s J K K K K ; F F B ",
"0 q # < 0 0 0 0 5 @ 0 0 0 0 e # 0 0 0 0 q 5 < 0 0 w +                     + w 0 5 @ 0 0 0 0 e # 0 0 0 0 q 5 < 0 0 0 0 e @ 0 0 0 ",
"= ; > 4 4 & # > 4 4 4 4 o : 4 4 4 4 O # 4 4 4 : - 2 +                     + 2 - 4 4 4 4 o : 4 4 4 4 O # 4 4 4 4 & o > 4 > ; ; = ",
"B F J K K d s J K K K K ; G K K K K : s K K K G Z c +                     + c Z K K K K ; G K K K K : s K K K K d ; J K J F F B ",
"M B B B C s q B B B B A = B B B B C ; q B B B B M c +                     + c M B B B A = B B B B C ; q B B B B s = B B B B B M ",
"= ; o # 4 4 4 4 & o > 4 4 4 4 O : 4 4 4 4 & # ; - 2 +                     + 2 - & o > 4 4 4 4 O : 4 4 4 4 & # > 4 4 4 4 o ; ; = ",
"B F ; s I I I I g ; L I I I I > J I I I I g s F Z c +                     + c Z g ; L I I I I > J I I I I g s L I I I I ; F F B ",
"M C ; q B B B B s = B B B B A ; B B B B C s q B M c +                     + c M s = B B B B A ; B B B B C s q B B B B A = B B M ",
"* = o @ * * * * # o * * * * - o * * * * = # @ * * % .                     . % * # o * * * * - o * * * * = # @ * * * * - o * * * "
};
