/* XPM */
static char *FLOOR__3_1713297795[] = {
/* columns rows colors chars-per-pixel */
"64 64 43 1 ",
"  c #000104",
". c #00040B",
"X c #000611",
"o c #000815",
"O c #000B1D",
"+ c #000E24",
"@ c #000F28",
"# c #00112B",
"$ c #001432",
"% c #001639",
"& c #00183D",
"* c #001A43",
"= c #001D4B",
"- c #001F51",
"; c #002155",
": c #00245C",
"> c #002663",
", c #002866",
"< c #00296B",
"1 c #002D73",
"2 c #002F7A",
"3 c #00317D",
"4 c #003383",
"5 c #00368B",
"6 c #003993",
"7 c #003C9C",
"8 c #003FA2",
"9 c #0040A6",
"0 c #0042AC",
"q c #0046B4",
"w c #0047B8",
"e c #0049BC",
"r c #004CC4",
"t c #004ECB",
"y c #0050CE",
"u c #0052D3",
"i c #0055DC",
"p c #0057E1",
"a c #0058E5",
"s c #005BEC",
"d c #005EF3",
"f c #0060F7",
"g c #0060F8",
/* pixels */
"i>OO3fggggggggu:O+4gggggggggy;O+5dggggggggt=+O6dggggggggr*O+6ffg",
"dr00tggggggdggsr0qtdggggggggar00ugggggggggae00ufggggggggaeq0ifgg",
"eaggiqiggggiqqraggiwpgggfiqqraggiwpggggiqqrsggueagggguqqrsggueag",
"*egg8+7gggg7++=egg6#9gggf6#+-rgg5$0dggg5++;ygg5&qgggg4++:ugg4&eg",
"2tgge<efgffe<<3uggw<eggggq<<4uggq1rggggq<<4igg02tdggg0<<5pgg03yf",
"gggggfgggffgfffggggfggggggfffggddggggggdgggggggggggggggggggddfgg",
"a6<<9gggggggggp6<<0gggggggggi5<<qdggggggggi4<<qgggggggggu4<<eggg",
"i,++2gggggggggu:++4gggggggggu;++5ggggggggdt-++6gggggggggr*++7ggg",
"stqquggggggggdsrqquggggggdggarqquggggggdggarqquggggggdggaeqqiggg",
"ggdgggggfaqqqiggggdggggpqqqiggdggggggiwqqpgggggggggiqqwaggggdggg",
"gggggggggw&++7gggggggggq%+#0ggggggggg0$+$0ggggggggg8#+%qgggggggg",
"gggggggggu3<1rgggggggggt3<1rggggggggdt1<2tggggggggge1<3ygggggggg",
"ggdfdgggggggdggddfdgggggfgggddgdggggggggdgdddfdggggggggggddddggg",
"a6,,8gggggggggp6,,0gggggggggi5<,qgggggggggi4,,qgggggggggu3<,wggg",
"i,@@4dggggggggu>@@4gggggggggu;@@5gggggggggt-@+6gggggggggr=#@7ggg",
"dtequgggggggggsrqeugggggggggatwwugggggggggatqeigggggggggaeqwiggg",
"qpggi0uggggi00qadduqiddggu00wagguqigggfu00raggtqpggggu00eagggdr0",
"%qgg7O7gggg7OO*rgg6+7dggg6OO=rgg5#0ggff5OO=tgd5$qdggg4OO;ugggi:O",
"4ygde1egggdr115ugdr2tggggw115iddq2rggggq116iggq4tgggg0116agdga7<",
"fddddgggggdgdddddddddgggggdgdddddggggggggddddddgggggggggdddddggd",
"a5>>8ggggggggdi5>,0gdgggggggi4>,0fggggggggu4>>qgggggggggu2>,eddg",
"i<##4dgggggggdi,@@5gggggggggu:@#6fggggggggt;##6dggggggggr=@#8diy",
"dteeuggggggdggdteeidggggggggsteeiggggggfggatewiggggdgdggatrwip1*",
"ggggggggdaq80iggddggggda000iddggdggggi000igggggggggi00qigdgddp4-",
"gggggggggw%OO7dgggggggg0$O+8ggggggggg9@O#0dgggggggg8OO$qgggggdsp",
"gggggggggu412rgggggggggu412rddgggggggt314tgggggggggr214uggddggdi",
"ddssddggggdgggddssdgggggggggddsadfggggfgggddssdgggggdgggdsssdgde",
"a5:>8ggggggggdi4>:0gggggggggi4>>0fggggggggu4:>0gggggggggu2>:wddp",
"p<$#4dggggggggi,$#5dggggggggu>$#6gggggggggt;$$7gggggggggr-$$8dut",
"dyrriggggggdggdteriggggggggdsterigggggggggateeigggggggggaterpp1%",
"0pdgu8uggggu88qpdgu8iggggu88qadgy9iggggt88waggt0iggggt88wsggga4-",
"$qdg7o6dggg7OX%wdg6O7gggg5oo*rgg5+9gggg4oo=tgg4#0gggg3oo-ugggdaa",
"5uggr2rggggr226ugge3rgggge226iggw4tfgggw227pggq5yggggq227agggggi",
"ddsadgdggggggddsaadgggggggggddaasfggggggggdaaadgfgggggggdsaadgdq",
"p5;:7dggggggggi4::9gggggggggi3;:0gggggggggu3::0gggggggggu1;:qggq",
"p<$$5gggggggggi,$$5ggggggggdu>%$6gggggggggt;%$7gggggggggr;%$8gdq",
"durrigggggggffdurriggggfgdggsurriggggdggggsyrrigggggggdgsyrtpdgq",
"dggdgggggi089uffgggggggi088uggdggggggi978iggggggggdu880igddgt781",
"gggggggggq$.o6ggggggggf0@XO8ggggggggg9+X+9ggggggggg7OX#0gggg2XX.",
"gggggggggu543tggggggggfu534tgggggggggt435ygggggggggt425uggddq24:",
"ggggggggggggggfaaasgggggggggdaapdgggggggggdaaasgggggggggdaaadgge",
"ggggggggggggggi4;;7gggggggggi4;;8gggggggggu2;;0gggggggggy1;;0ddp",
"ggggggggggggggi<%%6gggggggggu,%%6ggggggggft>%%7gggggggggt;%%8dur",
"gggggggggggfggsutrigggggggggsurtpggggggggfsutragggggggggautrpi<$",
"77qsu7ydgggy770iggy7uggggt770aggt8iggggt770aggr9iggggt77qaggda5>",
"..-u6X6gggg6..$egg5o7gggg4..%rgg4O8gggd4..*tgg3+0dggd2..=ugggdds",
"448at4tdgggr436iggr4tggggr447igge5tgggge447pgge5ugggge448adgggdu",
"gdggdgggggggggfaiasgggggggdfdaiasgdgggggfgdaaisfdgggggdddappdgdq",
"gdggggggggggggp3--7gggggggggi1;=8gggggggggy1--0gggggggggt1--qggq",
"eetdggggggggggi1&&6gggggggggu,&&7gggggggggt>&&7gggggggggr:&&8gdq",
"#@,igggggggdgddutyagggggggggsitypgggggggggduttagggggddgdsuttadgq",
",>5pgggggi877uddggdggggi867ufffggggggu767igggggggggu778iggggr67<",
"dsdgggggdq@..6ddggggggd0+ X7ggggggggg8O.O8ggggggggg7X.+0gggg1 . ",
"4yggggggdu755tgggdggggdi645ygggfggggdu545ugggggggggt546iggggw54>",
"%wdggggggggggddaiisgggggggggdaiiagggggggggdpiisgggggdgggdpiidgde",
"qpgggggggggggdi4=-7gggggggggi1==8gggggggggu<==0gggggggggt<==0gda",
"qwtsggggggggggp1**6dggggggggu<*&7gggggggffy,*&8gggggggggr>&*9dtq",
"#@:igggggggdggdiyupdgggggggddituagggggggffsiyyadgggggggdsuuuai,@",
",,6pt6tdgggt668iggt6udgggt668pggt7uggggr660adgr7idgggr660aggga6,",
"dddd6.6gggg6  @wgg5.7dggd4  $rgg4X7dggg3  %rgg2O0gggg1  *ugggddd",
"4yggt5tgggdt557idgt5yggggr557pggr6uggggr558aggr6uggggr550addgggu",
"O0ggggggggggdgdpuiagggggggggdpiuagdgggggggdiuiagdgggggdgdiiusgdq",
"Oqggggggggggggi2==7gggggggggu1==7gggggggggu<==0dggggggddt,==0ggq",
"+0ggggggggggggi1**6gggggggggu1**7ggggggggfy<**8ggggggggdt>=*0gdq"
};
