/* XPM */
static char *Player__2_1713291870[] = {
/* columns rows colors chars-per-pixel */
"64 64 204 2 ",
"   c None",
".  c #7D0204",
"X  c #7A0809",
"o  c #7A0E11",
"O  c #7F1523",
"+  c #086F08",
"@  c #166405",
"#  c #047404",
"$  c #047A03",
"%  c #097C07",
"&  c #0C750C",
"*  c #0B7C09",
"=  c #087807",
"-  c #12750D",
";  c #117D0E",
":  c #137B12",
">  c #1C7E15",
",  c #1C7817",
"<  c #2B6D16",
"1  c #267E1E",
"2  c #206A0E",
"3  c #5D037B",
"4  c #840204",
"5  c #890305",
"6  c #820809",
"7  c #870709",
"8  c #85110F",
"9  c #861211",
"0  c #891413",
"q  c #841B17",
"w  c #9B0409",
"e  c #A6040B",
"r  c #AC040C",
"t  c #A8070D",
"y  c #B3040D",
"u  c #B9040D",
"i  c #A90A11",
"p  c #B30510",
"a  c #B40A12",
"s  c #BA0C15",
"d  c #AB1115",
"f  c #B41216",
"g  c #B81116",
"h  c #B41A1C",
"j  c #BA1A1C",
"k  c #B7171B",
"l  c #8A2622",
"z  c #BA2B27",
"x  c #0B830A",
"c  c #068005",
"v  c #12810E",
"b  c #158212",
"n  c #1D811B",
"m  c #198515",
"M  c #1F8620",
"N  c #268721",
"B  c #2AAD2A",
"V  c #28AD26",
"C  c #29B327",
"Z  c #2BB42B",
"A  c #2DBB2D",
"S  c #30B52E",
"D  c #31BA2E",
"F  c #2DBA30",
"G  c #2DB330",
"H  c #32BC31",
"J  c #3CBC35",
"K  c #35B733",
"L  c #42BC3B",
"P  c #2DC22D",
"I  c #2FC92C",
"U  c #32C42E",
"Y  c #2FC331",
"T  c #2ECA32",
"R  c #34C332",
"E  c #3AC336",
"W  c #33CA31",
"Q  c #3CC539",
"!  c #42C43C",
"~  c #48C43F",
"^  c #7CCD5E",
"/  c #7BD15C",
"(  c #7ED561",
")  c #7EDC61",
"_  c #82D563",
"`  c #85DA64",
"'  c #8ADC66",
"]  c #8BDD69",
"[  c #86D969",
"{  c #91DF6C",
"}  c #8DDF70",
"|  c #8DE36B",
" . c #8DE96D",
".. c #89E167",
"X. c #92E46D",
"o. c #93E96E",
"O. c #93E471",
"+. c #94EA72",
"@. c #9AEC74",
"#. c #9DF276",
"$. c #9DF178",
"%. c #A1F378",
"&. c #0A2F87",
"*. c #0C338B",
"=. c #0B3086",
"-. c #163584",
";. c #1A3B8A",
":. c #233F84",
">. c #570284",
",. c #590286",
"<. c #5D0C83",
"1. c #5B0388",
"2. c #5B0A8C",
"3. c #5C1387",
"4. c #641586",
"5. c #691988",
"6. c #701F89",
"7. c #600A86",
"8. c #6B2484",
"9. c #72288A",
"0. c #783188",
"q. c #6C5CB4",
"w. c #6F5FB8",
"e. c #705EB8",
"r. c #705FB6",
"t. c #6A57AF",
"y. c #6D62B7",
"u. c #7263BB",
"i. c #7267BA",
"p. c #567CC2",
"a. c #746AC2",
"s. c #7366C0",
"d. c #5C84CC",
"f. c #5C89D2",
"g. c #4F80CE",
"h. c #6790D6",
"j. c #BC9285",
"k. c #CD9D88",
"l. c #CDA688",
"z. c #D4AD8C",
"x. c #DAAC8C",
"c. c #D8A687",
"v. c #C8AA99",
"b. c #CBB998",
"n. c #D4B393",
"m. c #DCB393",
"M. c #D3BC97",
"N. c #DCBA97",
"B. c #D6BA9A",
"V. c #DCBC9B",
"C. c #D6B59D",
"Z. c #CEB38F",
"A. c #E1B393",
"S. c #E3B897",
"D. c #E2BC9A",
"F. c #E0AF8D",
"G. c #CAB6A4",
"H. c #DDBDA2",
"J. c #D7B6A2",
"K. c #DFA1B8",
"L. c #E0BEA4",
"P. c #A5FB80",
"I. c #B6CCB5",
"U. c #CFC397",
"Y. c #DEC19E",
"T. c #E1C29E",
"R. c #E8C29E",
"E. c #DEC1A1",
"W. c #DCCCA1",
"Q. c #E2C4A2",
"!. c #E8C7A4",
"~. c #E6C9A5",
"^. c #E9CAA5",
"/. c #E6C9A9",
"(. c #E9CCA9",
"). c #EDD1AC",
"_. c #EFD2A6",
"`. c #F1D3AC",
"'. c #F6DBAF",
"]. c #F2D5B1",
"[. c #F5D9B4",
"{. c #FADDB5",
"}. c #F0CFAD",
"|. c #BE99C0",
" X c #C79EC6",
".X c #DDADCE",
"XX c #E3A9C5",
"oX c #E9B7D5",
"OX c #B8C0D2",
"+X c #C8D6C7",
"@X c #DADADA",
"#X c #D5D8D6",
"$X c #CBCED4",
"%X c #E1DBD8",
"&X c #DAE4DA",
"*X c #D8DBE3",
"=X c #F0C2E2",
"-X c #DFE8E0",
";X c #E5E5E5",
":X c #EAEBEA",
">X c #E7EAE6",
",X c #F3F2F3",
"<X c #FDFDFD",
"1X c #ECF1ED",
/* pixels */
"                                          4 X X . . X . . . . . . . 4                                                           ",
"                                          4 4 4 . 4 5 . 4 4 4 4 4 4 5                                                           ",
"                                  5 4 4 4 r r e e r y e r y r r y r r 4 4 4 4 4 4                                               ",
"                                  4 4 4 4 u u e r y u r y y y y u y r 4 4 . 4 4 4                                               ",
"                  4 4 4 4 4 4 4 4 r y r r u p r r y a r p a y p i p r y r r y p y 4 4                                           ",
"                  4 4 . 4 . 4 . 4 p u u u u p p a u u y y y u p u u u y u y y u y 4 4                                           ",
"              . 5 e r e t e e e r r r p i r p r t r p e r r r r t y r p p t p t y r e 4 4                                       ",
"              . 4 y y p p r y y p r p y y p p y r y u p u u u p p y y p u p u p y y y 4 4                                       ",
"              . 4 y y y t 7 5 4 4 4 4 7 4 p p r r p u r p y y y p p y u p y p y y y r 4 4                                       ",
"              . 4 y u y y 4 4 4 4 4 4 4 4 u p y p u u r y u u y y y y u u y u y y u y 4 4                                       ",
"              . 4 r y y t 4 4 X 4 X . . 4 4 4 . . . 4 . 4 4 4 4 4 4 . 5 . r p 5 4 4 5 r r 5 4                                   ",
"              . 5 r y t t 4 4 4 5 4 4 8 9 9 9 8 8 9 9 8 9 9 9 8 9 9 9 0 9 r r 5 4 5 5 y e 4 4                                   ",
"                  4 4 4 5 e r r y r d x.V.D.S.n.z.V.L.m.V.N.m.V.V.N.m.Q.!.4 5 r p p r y e 4 4                                   ",
"                  4 4 4 5 e y y y y s A.!.~.~.H.H./.`.V.^.~.!.(./.!.Y.`.].X 4 r r y y y e 4 4                                   ",
"                          4 4 r y y g N.!.f.h.$X#X/.}.T.^.~./.;X*Xh.d.(.[.X 4 r p p y y r 4 4                                   ",
"                          4 4 r u p s V./.p.d.OX$X/.`.T././.~.#X$Xg.p.].[.6 5 r y y y y r 4 4                                   ",
"                          . 4 e r r f x.E.*.*.;.:.v./.B.Q.E.E.;.;.*.-.^.).t e r e y r e e . 4                                   ",
"                          4 4 e y y s S./.=.*.&.-.G.).W.^.(.(.=.*.*.-._.[.t u y y u y y r 4 5                                   ",
"                          4 4 r u y g K..X X Xv.v./.].Q.(.^.~.G.G. X XoX=XX 5 r y y r 5 4                                       ",
"                          5 5 r u u s XXoXoXoXE.!.(.[.^.(.`.(.`.}.oX.XoX=XX 5 u u u u 4 4                                       ",
"                      4 5 e r r y r g m.H.!.!.B.B.!.(.B.Q.Q.Y.Q.Q.T.V.^._.X 4 e r i y e e 4 4                                   ",
"                      4 5 r p p u y s F.D.^.^.E.V.(.].Y.(.(.~.(./.(.T.~.^.. 4 r y u y y r 4 5                                   ",
"                      4 4 e u y u r u f f ^.(.T.Y.^.`.Y.^.^.~.^.^.^.N.0 0 r y y y y y y y r e 4 4                               ",
"                      4 4 r y y u r y y y ^.!.V.N.~.).Y.~.~.Q.~.R.~.N.. . y y y y u y y y u e . 4                               ",
"                      . 4 t p p p r p p p r r e t m.].H./.!.!.. . . . y u r p p r y y y e u e 4 . . 4                           ",
"                      4 4 e y r u p y k k j k k h m.`.Q.(.~.(.0 q q q j j u p p y y y y r u r 4 4 . 4                           ",
"                      4 4 e y r y r a k.x.x.x.l.l.V.Q.B.Y.E.V.z.z.z.l.m.V.t r r r y r r e y r e w 4 .                           ",
"                      4 4 e y r y d h A.Q.H.V.n.n.E.(.V.E.H.V.D.V.Q.V.^.).d a y r r y r r y y e e 4 4                           ",
"                  4 4 t t y u y y c.F.!.!.5.6.6.8.J.`.Q.H.0.6.6.0.W.E.`.].z.x.f y y y y y u y r e 4 4                           ",
"                  4 4 y y y u u u R._.`._.>.,.>.<.H.[.^.!.4.1.,.5.^.^.[.{.E.!.j y u y y y u u y e 5 4                           ",
"                  4 4 r y r y c.R.Y.V.5.3 i.u.q.t.3.4.<.2.q.e.u.q.<.3._.).B.D.h y y y y e u y e e 4 4                           ",
"                  5 4 r y r u F._.T.H.5.,.a.u.y.q.2.1.>.2.e.u.u.e.1.<.`.`.V.H.k y y y y r u y r e 5 4                           ",
"                      4 5 r a A.(.Q.V.4.>.a.i.y.y.2.1.,.2.e.u.i.e.2.<.`.`.V.T.h y y y r r u r 4 4                               ",
"                      4 5 e y A.`.!.L.4.>.a.a.y.y.2.1.>.2.u.i.i.e.2.<.[.[.Y.R.h y y y y r u e 4 4                               ",
"                          4 7 m.}.R.^.^.~.>.>.>.<.C.(.Q.H.5.1.,.4.E.T.`.).V.D.j y u y 4 4 4 4                                   ",
"                          7 7 N.).Q.^.V.m.3 3 4.8.G.].Q.L.9.5.5.9.m.z.`.[.V.!.z f y r 4 4 . 4                                   ",
"                              Q./.V.n.l q X O j.v.H./.M.H.v.v.v.j.l l /./.M.H.x.x.4 4                                           ",
"                            Y.~.(.E.V.o . X O l.n.E./.B.W.Q.R.Q.M.o X ~.~.M.Q.Y.~.. 4                                           ",
"                          ).^.(._.%X#X< @ @ < Z.B.~.).Y.~.~.Q.~.M.2 @ N N U.^.~.`.                                              ",
"                            `.`.'.:X-Xb $ $ m U.^.[.{.^.`.].`.[.W.* # $ # Y.'._.{.                                              ",
"                                  : m _ ` ' / , - - - M.M.1 - - > _ _ } O.- < +X@X,X#X; # $ $                                   ",
"                                  * v ' { X.` > & * $ M.U.: # * m | ] @.$.: n &X;X&X+Xb & * *                                   ",
"                                      m v Q ! / ^ H A , m C C ` _ Q K b v I.#X;X>Xn N [ _ | / * $                               ",
"                                      * $ P Q ' ] Q W # % A D @. .U A # # #X:X:X>X# v O.X.#.` * $                               ",
"                                          # # + + # # G Z % # # # # - :X1X@X;X;X;X# ; } } R Z # # $ # $ $                       ",
"                                          $ # # # % % Z Z v * ; * # & ,X,X@X:X;X>X# v | X.R Z ; ; ; ; ; v                       ",
"                                          $ * V B A P # : ( ] X._ x & ,X,X@X>X;X:X# ; } X.R E _ [ | | ' ` v $                   ",
"                                          $ * V B A U & ; [ X.X._ * & :X,X#X;X;X-X& : } [ E ! [ ' X.X..._ ; #                   ",
"                                          $ % B S H U ^ _ X.o.X.[ * - :X,X@X;X;X>XOXI.N n  .) L L ! ! L J % #                   ",
"                                          $ % Z S R R +.%.#.#.%.O.; - <X<X;X,X,X1X1X&X; # P.+.J K R E R D % #                   ",
"                                          $ % V B A R S J ' ] { _ % & ;X>X, ; : v ; n ( _ R K Z V x % # # # #                   ",
"                                          $ % C A H U A R | X.+.' x - >X>X& % % * * b ..' U P F C x $ $ $ $ #                   ",
"                                          $ % Z B H R A H  .X.@.] * + M 1 ^ [ ` ' ` / ! J R Z * %                               ",
"                                          c x C A R W F E  .@.%.| % # $ # { @.#.@.@. .Q H W Z = $                               ",
"                                              = # Z D Z H F F o.O.X.] @.@.' X.X.O.H R F S Y C = #                               ",
"                                              $ # Z U A H H F  .X.@.X.@.%.{ @. . .Y R H A W C = $                               ",
"                                              = # Z U Z H H H J ~ o.| $.%.| o.! E U H H D R C # $                               ",
"                                                = C R S A D A H J ..] +.@.[ ..J D A D D A H C $ $                               ",
"                                                  $ $ # % A R Y R Y F W Q F R R R R A % # $ $                                   ",
"                                                  $ $ $ x A P T T T Y W W P I W U T P % # $ c                                   ",
"                                                      $ # = % * & * & R H B S K A = %                                           ",
"                                                      $ = $ $ # $ $ = Y R A A H H $ $                                           ",
"                                                                      x x % % % x                                               ",
"                                                                      $ $ # $ $ $                                               "
};
